%
M48
M72
T01C0.01969
T02C0.03150
T03C0.03200
T04C0.03543
T05C0.03600
T06C0.03937
T07C0.04000
T08C0.09100
T09C0.11811
T10C0.15748
%
T01
X102238Y71913
X127364Y72169
X110264Y112994
X116164Y132269
X145364Y150069
X145364Y158469
X132964Y181869
X163864Y190769
X167564Y184769
X170264Y179569
X182464Y206969
X190964Y206869
X199464Y206669
X248364Y213969
X282764Y221269
X307423Y213573
X308101Y195369
X307686Y177565
X284064Y186269
X275064Y169569
X265264Y169869
X255364Y169969
X265252Y134135
X249996Y123309
X245764Y100572
X216334Y104706
X193232Y130169
X166201Y123506
X155348Y126969
X220241Y54017
X76464Y171669
X44664Y186269
X40129Y195105
X23964Y194969
X311064Y239569
T02
X282164Y206369
X272164Y208869
X262164Y206369
X252164Y206369
X250406Y60188
X240406Y60188
X260406Y60188
X270406Y60188
X280406Y60188
X290406Y60188
X300406Y60188
X310406Y60188
T03
X279064Y36869
X279064Y16869
X182134Y128505
X172134Y128505
X172280Y140526
X182280Y140526
X205168Y151220
X205168Y159220
X267915Y229191
X267915Y239191
X123904Y178591
X113904Y178591
X123564Y134469
X123564Y124469
X60465Y147976
X60465Y166976
X56754Y212132
X56754Y222132
X32972Y216439
X24972Y216439
X89053Y23534
X99053Y23534
X120384Y23295
X130384Y23295
T04
X36071Y110576
X26071Y110576
X16071Y110576
T05
X269809Y260050
X279609Y260050
X287509Y260050
X297309Y260050
T06
X236610Y272817
X236610Y201950
X79130Y201950
X79130Y272817
X200811Y23000
X210811Y23000
T07
X37223Y22009
X47223Y22009
X57223Y22009
X67223Y22009
X65512Y44681
X75512Y44681
X85512Y44681
X95512Y44681
X116601Y44709
X126601Y44709
X136601Y44709
X146601Y44709
X156601Y44709
X166601Y44709
X176601Y44709
X186601Y44709
X176696Y21639
X166696Y21639
X156696Y21639
X146696Y21639
X146601Y94709
X156601Y94709
X166601Y94709
X176601Y94709
X186601Y94709
X136601Y94709
X126601Y94709
X116601Y94709
X95512Y94681
X85512Y94681
X75512Y94681
X65512Y94681
X55512Y94681
X45512Y94681
X35512Y94681
X25512Y94681
X25512Y44681
X35512Y44681
X45512Y44681
X55512Y44681
X233938Y29603
X233938Y19603
X243938Y19603
X243938Y29603
X253938Y29603
X253938Y19603
X263938Y19603
X263938Y29603
X293419Y17230
X311219Y17230
X311219Y42830
X293419Y42830
X289564Y127569
X299564Y127569
X309564Y127569
X279564Y127569
T08
X257709Y270750
X309409Y270750
T09
X224799Y235415
X224799Y117305
X87004Y117305
X87004Y235415
T10
X49804Y254820
X27756Y251276
M30
